<svg width="332" height="47" viewBox="0 0 332 47" fill="none" xmlns="http://www.w3.org/2000/svg">
<path d="M18.5841 46C14.4454 46 11.1601 45.6373 8.7281 44.912C6.2961 44.144 4.5041 42.928 3.3521 41.264C2.2001 39.6 1.45343 37.36 1.1121 34.544C0.770764 31.728 0.600098 28.2507 0.600098 24.112C0.600098 19.9733 0.749431 16.4533 1.0481 13.552C1.38943 10.608 2.11476 8.24 3.2241 6.448C4.3761 4.61333 6.14676 3.29067 8.5361 2.48C10.9681 1.62666 14.2534 1.2 18.3921 1.2C20.1414 1.2 22.0188 1.456 24.0241 1.968C26.0294 2.43733 28.0134 3.20533 29.9761 4.272C31.9388 5.33867 33.7094 6.768 35.2881 8.56C36.9094 10.352 38.1894 12.528 39.1281 15.088C40.1094 17.648 40.6001 20.6773 40.6001 24.176C40.6001 27.5467 40.0881 30.4693 39.0641 32.944C38.0828 35.376 36.7814 37.4453 35.1601 39.152C33.5814 40.816 31.8108 42.16 29.8481 43.184C27.8854 44.1653 25.9228 44.8907 23.9601 45.36C21.9974 45.7867 20.2054 46 18.5841 46ZM14.6161 34.736C18.5414 35.3333 21.5921 34.8213 23.7681 33.2C25.9868 31.5787 27.0961 29.1253 27.0961 25.84C27.0961 22.8533 25.9868 20.656 23.7681 19.248C21.5921 17.7973 18.5414 17.3707 14.6161 17.968V34.736Z" fill="white"/>
<path d="M50.6356 46C49.1849 46 47.9903 45.5307 47.0516 44.592C46.1556 43.6107 45.4729 42.3093 45.0036 40.688C44.5343 39.0667 44.2143 37.2107 44.0436 35.12C43.8729 33.0293 43.7876 30.8747 43.7876 28.656C43.7876 27.1627 43.8089 25.648 43.8516 24.112C43.9369 22.5333 44.1503 21.0827 44.4916 19.76C44.8756 18.4373 45.4943 17.3707 46.3476 16.56C47.2436 15.7067 48.5023 15.28 50.1236 15.28C51.2756 15.28 52.3209 15.5573 53.2596 16.112C54.1983 16.624 54.7956 17.4133 55.0516 18.48C56.0329 17.584 57.2703 16.944 58.7636 16.56C60.2996 16.1333 61.8783 15.92 63.4996 15.92C64.8649 15.92 66.2516 16.2613 67.6596 16.944C69.0676 17.584 70.2623 18.48 71.2436 19.632C72.2249 20.784 72.7156 22.0853 72.7156 23.536C72.7156 24.7733 72.2463 25.9467 71.3076 27.056C70.4116 28.1653 69.1316 28.72 67.4676 28.72C66.7423 28.72 66.1449 28.6347 65.6756 28.464C65.2063 28.2507 64.7583 28.0587 64.3316 27.888C63.9049 27.7173 63.3929 27.632 62.7956 27.632C61.2169 27.632 59.7663 28.272 58.4436 29.552C57.1636 30.7893 56.5236 32.4747 56.5236 34.608C56.5236 35.7173 56.4809 36.9333 56.3956 38.256C56.3529 39.536 56.1609 40.7733 55.8196 41.968C55.5209 43.1627 54.9663 44.144 54.1556 44.912C53.3449 45.6373 52.1716 46 50.6356 46Z" fill="white"/>
<path d="M88.7891 46C85.5891 46 82.7731 45.3813 80.3411 44.144C77.9518 42.864 76.0744 41.136 74.7091 38.96C73.3864 36.7413 72.7251 34.2027 72.7251 31.344C72.7251 28.5707 73.3864 26.0107 74.7091 23.664C76.0744 21.3173 77.9304 19.44 80.2771 18.032C82.6664 16.624 85.3971 15.92 88.4691 15.92C91.3278 15.92 93.7811 16.496 95.8291 17.648C97.8771 18.8 99.4344 20.272 100.501 22.064C101.61 23.8133 102.165 25.6693 102.165 27.632C102.165 29.5947 101.717 31.216 100.821 32.496C99.9251 33.7333 98.7518 34.6933 97.3011 35.376C95.8931 36.016 94.3784 36.4427 92.7571 36.656C91.1358 36.8693 89.5784 36.912 88.0851 36.784C86.5918 36.6133 85.3331 36.3573 84.3091 36.016C85.0771 37.2533 86.0371 38.1067 87.1891 38.576C88.3838 39.0027 89.6211 39.1947 90.9011 39.152C92.2238 39.0667 93.4184 38.9173 94.4851 38.704C95.8078 38.4053 96.8958 38.4693 97.7491 38.896C98.6024 39.3227 99.0504 40.0053 99.0931 40.944C99.1358 41.712 98.8584 42.48 98.2611 43.248C97.7064 44.016 96.6824 44.6773 95.1891 45.232C93.6958 45.744 91.5624 46 88.7891 46ZM84.5011 28.208C84.9278 28.8907 85.5464 29.3813 86.3571 29.68C87.1678 29.936 87.9784 30.0213 88.7891 29.936C89.6424 29.8507 90.3464 29.616 90.9011 29.232C91.4984 28.848 91.7971 28.3147 91.7971 27.632C91.7971 26.9067 91.4984 26.2667 90.9011 25.712C90.3464 25.1147 89.4504 24.816 88.2131 24.816C87.0184 24.816 86.1011 25.2 85.4611 25.968C84.8211 26.6933 84.5011 27.44 84.5011 28.208Z" fill="white"/>
<path d="M115.62 46C113.529 46 111.609 45.68 109.86 45.04C108.153 44.4 106.788 43.44 105.764 42.16C104.74 40.8373 104.228 39.1733 104.228 37.168C104.228 35.4613 104.74 34.0107 105.764 32.816C106.788 31.6213 108.153 30.704 109.86 30.064C111.609 29.424 113.529 29.104 115.62 29.104C116.857 29.104 117.988 29.2107 119.012 29.424C120.036 29.5947 120.74 29.808 121.124 30.064C121.124 29.0827 120.719 28.2293 119.908 27.504C119.097 26.736 117.689 26.352 115.684 26.352C114.745 26.352 113.999 26.4373 113.444 26.608C112.932 26.736 112.463 26.9067 112.036 27.12C111.609 27.3333 111.119 27.5253 110.564 27.696C110.052 27.824 109.348 27.888 108.452 27.888C107.129 27.888 106.063 27.5467 105.252 26.864C104.484 26.1387 104.1 25.0507 104.1 23.6C104.1 22.2773 104.463 21.1467 105.188 20.208C105.956 19.2267 106.937 18.416 108.132 17.776C109.327 17.136 110.607 16.6667 111.972 16.368C113.38 16.0693 114.724 15.92 116.004 15.92C119.801 15.92 122.895 16.624 125.284 18.032C127.673 19.3973 129.444 21.1893 130.596 23.408C131.748 25.6267 132.324 28.0373 132.324 30.64C132.324 32.0907 132.196 33.4347 131.94 34.672C131.727 35.9093 131.428 36.8693 131.044 37.552C131.641 38.064 132.089 38.6613 132.388 39.344C132.729 40.0267 132.9 40.7307 132.9 41.456C132.9 42.6507 132.495 43.7173 131.684 44.656C130.916 45.552 129.807 46 128.356 46C127.247 46 126.372 45.8293 125.732 45.488C125.092 45.1467 124.452 44.6987 123.812 44.144C122.788 44.7413 121.657 45.2107 120.42 45.552C119.183 45.8507 117.583 46 115.62 46ZM116.9 39.536C117.881 39.536 118.607 39.344 119.076 38.96C119.588 38.5333 119.844 38.064 119.844 37.552C119.844 37.04 119.588 36.592 119.076 36.208C118.607 35.7813 117.881 35.568 116.9 35.568C115.961 35.568 115.236 35.7813 114.724 36.208C114.212 36.592 113.956 37.04 113.956 37.552C113.956 38.064 114.212 38.5333 114.724 38.96C115.236 39.344 115.961 39.536 116.9 39.536Z" fill="white"/>
<path d="M157.043 46C154.995 46 153.63 45.296 152.947 43.888C152.264 42.48 151.923 40.496 151.923 37.936C151.923 35.8027 151.859 34.032 151.731 32.624C151.603 31.216 151.006 30.512 149.939 30.512C149.043 30.512 148.403 30.832 148.019 31.472C147.678 32.112 147.486 32.9867 147.443 34.096C147.4 35.2053 147.379 36.4853 147.379 37.936C147.379 39.4293 147.272 40.7947 147.059 42.032C146.888 43.2267 146.44 44.1867 145.715 44.912C145.032 45.5947 143.923 45.936 142.387 45.936C140.894 45.936 139.678 45.4027 138.739 44.336C137.843 43.2693 137.16 41.8613 136.691 40.112C136.222 38.3627 135.902 36.464 135.731 34.416C135.56 32.368 135.475 30.3627 135.475 28.4C135.475 24.816 135.795 21.8507 136.435 19.504C137.075 17.1147 138.44 15.6213 140.531 15.024C141.811 14.64 143.027 14.6187 144.179 14.96C145.331 15.3013 146.099 15.9413 146.483 16.88C146.91 16.6667 147.422 16.4533 148.019 16.24C148.616 15.984 149.555 15.856 150.835 15.856C152.115 15.856 153.374 16.176 154.611 16.816C155.848 17.456 156.744 18.3947 157.299 19.632C158.323 18.4373 159.411 17.4987 160.563 16.816C161.715 16.1333 163.294 15.8133 165.299 15.856C167.987 15.8987 170.291 16.7307 172.211 18.352C174.131 19.9307 175.603 22.064 176.627 24.752C177.694 27.3973 178.227 30.3413 178.227 33.584C178.227 35.6747 178.035 37.68 177.651 39.6C177.31 41.4773 176.648 43.0133 175.667 44.208C174.728 45.4027 173.384 46 171.635 46C170.099 46 168.968 45.6373 168.243 44.912C167.56 44.1867 167.112 43.2267 166.899 42.032C166.728 40.7947 166.643 39.4293 166.643 37.936C166.643 36.4853 166.622 35.2053 166.579 34.096C166.536 32.9867 166.344 32.112 166.003 31.472C165.662 30.832 165.022 30.512 164.083 30.512C163.4 30.512 162.931 30.832 162.675 31.472C162.419 32.112 162.27 32.9867 162.227 34.096C162.227 35.2053 162.206 36.4853 162.163 37.936C162.12 40.496 161.736 42.48 161.011 43.888C160.328 45.296 159.006 46 157.043 46Z" fill="white"/>
<path d="M191.077 46.064C189.157 46.064 187.557 45.4453 186.277 44.208C185.039 42.928 184.058 41.2427 183.333 39.152C182.607 37.0187 182.095 34.6933 181.797 32.176C181.541 29.6587 181.413 27.1627 181.413 24.688C181.413 21.7867 181.797 18.9493 182.565 16.176C183.375 13.4027 184.591 10.9067 186.213 8.688C187.877 6.42667 189.967 4.63466 192.485 3.312C195.002 1.98933 197.989 1.328 201.445 1.328C204.943 1.328 208.101 2.05333 210.917 3.504C213.775 4.95466 216.058 7.024 217.765 9.712C219.471 12.4 220.325 15.6 220.325 19.312C220.325 22.5547 219.834 25.3707 218.853 27.76C217.914 30.1067 216.655 32.048 215.077 33.584C215.717 34.5653 216.229 35.6107 216.613 36.72C216.997 37.8293 217.189 38.896 217.189 39.92C217.189 41.1147 216.869 42.1813 216.229 43.12C215.589 44.016 214.757 44.72 213.733 45.232C212.751 45.744 211.706 46 210.597 46C209.658 46 208.783 45.8507 207.973 45.552C207.162 45.2533 206.266 44.7413 205.285 44.016C204.389 43.3333 203.599 42.4373 202.917 41.328C202.234 40.176 201.679 39.0453 201.253 37.936C199.759 37.7653 198.351 37.4027 197.029 36.848C197.242 37.872 197.349 38.9173 197.349 39.984C197.391 41.0507 197.221 42.0533 196.837 42.992C196.495 43.888 195.855 44.6347 194.917 45.232C194.021 45.7867 192.741 46.064 191.077 46.064ZM202.085 27.76C203.621 27.76 204.943 27.2267 206.053 26.16C207.205 25.0507 207.781 23.7707 207.781 22.32C207.781 20.8267 207.205 19.5467 206.053 18.48C204.943 17.3707 203.621 16.816 202.085 16.816C200.549 16.816 199.205 17.3707 198.053 18.48C196.943 19.5467 196.389 20.8267 196.389 22.32C196.389 23.7707 196.943 25.0507 198.053 26.16C199.205 27.2267 200.549 27.76 202.085 27.76Z" fill="white"/>
<path d="M236.35 46.064C233.193 46.1067 230.419 45.4667 228.03 44.144C225.683 42.7787 223.827 40.944 222.462 38.64C221.139 36.2933 220.435 33.712 220.35 30.896C220.307 27.9947 220.969 25.4347 222.334 23.216C223.699 20.9547 225.598 19.1627 228.03 17.84C230.462 16.5173 233.235 15.856 236.35 15.856C239.422 15.8133 242.131 16.4533 244.478 17.776C246.867 19.0987 248.766 20.8907 250.174 23.152C251.582 25.4133 252.329 27.9947 252.414 30.896C252.457 33.6693 251.795 36.208 250.43 38.512C249.065 40.7733 247.166 42.5867 244.734 43.952C242.302 45.2747 239.507 45.9787 236.35 46.064ZM236.542 36.72C237.694 36.72 238.697 36.272 239.55 35.376C240.403 34.48 240.83 33.4347 240.83 32.24C240.83 31.0453 240.403 30.0213 239.55 29.168C238.697 28.272 237.694 27.824 236.542 27.824C235.39 27.824 234.387 28.272 233.534 29.168C232.681 30.0213 232.254 31.0453 232.254 32.24C232.254 33.4347 232.681 34.48 233.534 35.376C234.387 36.272 235.39 36.72 236.542 36.72Z" fill="white"/>
<path d="M270.35 46.064C267.193 46.1067 264.419 45.4667 262.03 44.144C259.683 42.7787 257.827 40.944 256.462 38.64C255.139 36.2933 254.435 33.712 254.35 30.896C254.307 27.9947 254.969 25.4347 256.334 23.216C257.699 20.9547 259.598 19.1627 262.03 17.84C264.462 16.5173 267.235 15.856 270.35 15.856C273.422 15.8133 276.131 16.4533 278.478 17.776C280.867 19.0987 282.766 20.8907 284.174 23.152C285.582 25.4133 286.329 27.9947 286.414 30.896C286.457 33.6693 285.795 36.208 284.43 38.512C283.065 40.7733 281.166 42.5867 278.734 43.952C276.302 45.2747 273.507 45.9787 270.35 46.064ZM270.542 36.72C271.694 36.72 272.697 36.272 273.55 35.376C274.403 34.48 274.83 33.4347 274.83 32.24C274.83 31.0453 274.403 30.0213 273.55 29.168C272.697 28.272 271.694 27.824 270.542 27.824C269.39 27.824 268.387 28.272 267.534 29.168C266.681 30.0213 266.254 31.0453 266.254 32.24C266.254 33.4347 266.681 34.48 267.534 35.376C268.387 36.272 269.39 36.72 270.542 36.72Z" fill="white"/>
<path d="M309.918 46C307.87 46 306.505 45.296 305.822 43.888C305.139 42.48 304.798 40.496 304.798 37.936C304.798 35.8027 304.734 34.032 304.606 32.624C304.478 31.216 303.881 30.512 302.814 30.512C301.918 30.512 301.278 30.832 300.894 31.472C300.553 32.112 300.361 32.9867 300.318 34.096C300.275 35.2053 300.254 36.4853 300.254 37.936C300.254 39.4293 300.147 40.7947 299.934 42.032C299.763 43.2267 299.315 44.1867 298.59 44.912C297.907 45.5947 296.798 45.936 295.262 45.936C293.769 45.936 292.553 45.4027 291.614 44.336C290.718 43.2693 290.035 41.8613 289.566 40.112C289.097 38.3627 288.777 36.464 288.606 34.416C288.435 32.368 288.35 30.3627 288.35 28.4C288.35 24.816 288.67 21.8507 289.31 19.504C289.95 17.1147 291.315 15.6213 293.406 15.024C294.686 14.64 295.902 14.6187 297.054 14.96C298.206 15.3013 298.974 15.9413 299.358 16.88C299.785 16.6667 300.297 16.4533 300.894 16.24C301.491 15.984 302.43 15.856 303.71 15.856C304.99 15.856 306.249 16.176 307.486 16.816C308.723 17.456 309.619 18.3947 310.174 19.632C311.198 18.4373 312.286 17.4987 313.438 16.816C314.59 16.1333 316.169 15.8133 318.174 15.856C320.862 15.8987 323.166 16.7307 325.086 18.352C327.006 19.9307 328.478 22.064 329.502 24.752C330.569 27.3973 331.102 30.3413 331.102 33.584C331.102 35.6747 330.91 37.68 330.526 39.6C330.185 41.4773 329.523 43.0133 328.542 44.208C327.603 45.4027 326.259 46 324.51 46C322.974 46 321.843 45.6373 321.118 44.912C320.435 44.1867 319.987 43.2267 319.774 42.032C319.603 40.7947 319.518 39.4293 319.518 37.936C319.518 36.4853 319.497 35.2053 319.454 34.096C319.411 32.9867 319.219 32.112 318.878 31.472C318.537 30.832 317.897 30.512 316.958 30.512C316.275 30.512 315.806 30.832 315.55 31.472C315.294 32.112 315.145 32.9867 315.102 34.096C315.102 35.2053 315.081 36.4853 315.038 37.936C314.995 40.496 314.611 42.48 313.886 43.888C313.203 45.296 311.881 46 309.918 46Z" fill="white"/>
<path d="M278.016 3.104C278.016 3.91467 277.717 4.608 277.12 5.184C276.523 5.76 275.808 6.048 274.976 6.048C274.165 6.048 273.461 5.76 272.864 5.184C272.288 4.58667 272 3.872 272 3.04C272 2.208 272.288 1.49333 272.864 0.896C273.44 0.298667 274.144 0 274.976 0C275.829 0 276.544 0.298667 277.12 0.896C277.717 1.472 278.016 2.208 278.016 3.104ZM276.128 2.848C276.085 2.54933 275.947 2.304 275.712 2.112C275.499 1.92 275.243 1.824 274.944 1.824C274.624 1.824 274.357 1.94133 274.144 2.176C273.931 2.38933 273.824 2.656 273.824 2.976C273.824 3.296 273.931 3.57333 274.144 3.808C274.379 4.02133 274.656 4.128 274.976 4.128C275.296 4.128 275.573 3.98933 275.808 3.712C276.043 3.43467 276.149 3.14667 276.128 2.848ZM286.464 9.376C286.464 10.208 286.229 10.9973 285.76 11.744C285.291 12.4907 284.683 13.088 283.936 13.536C283.189 13.984 282.411 14.208 281.6 14.208C280.747 14.208 279.957 13.9947 279.232 13.568C278.507 13.1413 277.92 12.5653 277.472 11.84C277.045 11.1147 276.832 10.3147 276.832 9.44C276.832 8.58667 277.045 7.79733 277.472 7.072C277.899 6.32533 278.475 5.73867 279.2 5.312C279.925 4.864 280.725 4.64 281.6 4.64C282.453 4.64 283.253 4.85333 284 5.28C284.747 5.68533 285.344 6.25067 285.792 6.976C286.24 7.70133 286.464 8.50133 286.464 9.376ZM283.328 9.28C283.328 8.78933 283.147 8.384 282.784 8.064C282.421 7.72267 282.005 7.552 281.536 7.552C281.003 7.552 280.576 7.72267 280.256 8.064C279.936 8.40533 279.776 8.82133 279.776 9.312C279.776 9.80267 279.936 10.2293 280.256 10.592C280.597 10.9333 281.024 11.104 281.536 11.104C282.005 11.104 282.421 10.9227 282.784 10.56C283.147 10.1973 283.328 9.77067 283.328 9.28Z" fill="white"/>
</svg>
