<svg width="52" height="49" viewBox="0 0 52 49" fill="none" xmlns="http://www.w3.org/2000/svg">
<g clip-path="url(#clip0_1028_502)">
<path d="M8.58276 9.50299V27.9543C8.58276 28.6896 8.97406 29.3733 9.61476 29.7388L25.5936 38.9666V19.3242L8.58276 9.50299Z" fill="#FFDD00"/>
<path d="M8.58276 9.503L25.5936 19.3242L42.6044 9.503L26.6256 0.275199C25.9892 -0.0946015 25.2023 -0.0946015 24.5616 0.275199L8.58276 9.503Z" fill="#F5EA61"/>
<path d="M25.5935 38.9666L41.5723 29.7388C42.2087 29.369 42.6043 28.6896 42.6043 27.9543V9.50299L25.5935 19.3242V38.9666Z" fill="#FFCD00"/>
<path d="M26.9782 20.0896L51.1915 4.51929L25.5979 17.7031L0 4.51929L24.2133 20.0939L25.5936 48.8996L26.9739 20.0939L26.9782 20.0896Z" fill="white"/>
</g>
<defs>
<clipPath id="clip0_1028_502">
<rect width="51.1915" height="48.8953" fill="white"/>
</clipPath>
</defs>
</svg>
